<?xml version="1.0" standalone="no"?>
<!DOCTYPE svg PUBLIC "-//W3C//DTD SVG 20010904//EN"
 "http://www.w3.org/TR/2001/REC-SVG-20010904/DTD/svg10.dtd">
<svg version="1.0" xmlns="http://www.w3.org/2000/svg"
 width="1024.000000pt" height="1024.000000pt" viewBox="0 0 1024.000000 1024.000000"
 preserveAspectRatio="xMidYMid meet">
<metadata>
Created by potrace 1.16, written by Peter Selinger 2001-2019
</metadata>
<g transform="translate(0.000000,1024.000000) scale(0.100000,-0.100000)"
fill="#000000" stroke="none">
<path d="M0 5375 c0 -4722 1 -4865 18 -4865 11 0 27 -9 36 -19 15 -16 16 -31
10 -103 l-6 -84 -29 4 -29 4 0 -156 0 -156 5120 0 5120 0 0 5120 0 5120 -5120
0 -5120 0 0 -4865z m6608 2256 c-13 -15 -117 -144 -233 -286 -115 -142 -259
-321 -318 -399 -60 -77 -126 -162 -148 -188 l-39 -47 0 -194 c0 -107 3 -222 6
-255 l7 -62 1565 0 1566 0 59 -85 c39 -56 69 -90 89 -98 23 -9 -332 -11 -1699
-9 -1457 2 -1728 5 -1731 16 -5 23 14 81 27 78 19 -4 13 6 -49 80 l-60 71 -1
156 c-1 291 2 384 12 403 6 10 38 49 71 86 33 37 91 105 127 151 101 129 159
201 239 294 39 47 72 87 72 89 0 2 -157 4 -348 5 l-349 0 -81 -106 c-45 -58
-160 -201 -255 -318 -371 -456 -617 -763 -702 -873 -48 -63 -94 -119 -101
-123 -19 -11 -2484 -14 -2484 -3 0 12 56 83 109 139 l45 47 77 0 c68 0 77 -2
82 -20 5 -18 14 -20 111 -20 90 0 106 3 115 18 9 16 65 17 916 20 l907 2 25
30 c14 17 53 66 86 109 57 73 116 145 339 417 46 56 128 157 183 225 55 68
102 126 105 129 3 3 28 34 55 70 63 83 226 272 322 373 l73 77 588 -6 c584 -6
587 -6 612 15 34 28 36 26 8 -8z m-4753 -1450 c-17 -10 -63 -54 -103 -98 l-72
-80 -57 5 c-32 2 -60 6 -62 8 -7 6 30 57 88 121 l56 62 90 1 90 0 -30 -19z
m-447 -157 c46 -13 19 -24 -55 -24 -71 1 -76 2 -59 15 20 15 74 19 114 9z
m3585 -189 l577 0 0 -72 0 -72 -62 -71 -63 -71 -450 1 c-247 1 -465 2 -482 1
l-33 -1 0 -65 c0 -36 3 -65 8 -65 17 -1 265 -31 405 -50 84 -11 204 -28 267
-36 185 -25 309 -71 368 -139 42 -47 44 -61 40 -209 l-3 -126 -70 -70 -69 -70
-611 0 c-335 0 -627 3 -647 6 l-38 7 0 81 c0 44 3 104 6 131 l6 50 559 -3 559
-2 0 48 0 49 -152 12 c-84 6 -232 23 -328 36 -416 59 -493 80 -546 151 l-29
38 2 205 2 206 48 44 c58 54 99 73 133 64 14 -4 285 -7 603 -8z m-2285 -145
l3 -140 -231 0 -230 0 -2 -297 c-1 -164 -2 -350 -2 -413 l-1 -115 -125 -3
c-69 -2 -138 -1 -155 2 l-30 6 2 137 c2 76 4 262 5 413 l3 275 -217 -3 -218
-3 0 143 0 143 597 -3 598 -2 3 -140z m3743 140 l659 0 0 -140 0 -140 -200 0
-200 0 2 -415 3 -415 -136 0 c-75 0 -149 3 -165 6 l-29 5 3 410 2 409 -330 0
-330 0 0 146 0 147 31 -7 c17 -3 328 -6 690 -6z m-2371 -140 l0 -140 -240 0
-240 0 0 -414 0 -413 -157 1 -158 1 0 415 0 415 -222 -3 -223 -3 0 141 0 140
620 0 620 0 0 -140z m4818 95 c34 -24 65 -52 69 -62 7 -14 -8 -384 -16 -401
-5 -10 -118 -73 -173 -96 -38 -16 -68 -31 -68 -35 0 -7 60 -57 110 -91 27 -19
152 -116 192 -149 4 -3 -59 -6 -140 -6 -103 0 -154 4 -170 13 -42 24 -163 134
-174 158 -11 23 -14 24 -133 24 -67 0 -124 -3 -127 -6 -17 -16 20 -56 170
-188 92 -79 188 -161 215 -181 26 -20 47 -38 47 -42 0 -3 -75 -4 -167 -2 -93
2 -173 1 -179 -3 -7 -5 -74 51 -166 138 -165 153 -168 158 -168 252 l0 32
-240 0 -240 0 0 -88 0 -88 78 8 c103 9 334 10 348 0 8 -4 13 -52 15 -130 l4
-122 -373 2 -373 3 1 522 c0 287 3 536 6 553 l7 30 792 0 793 0 60 -45z
m-3596 -1327 l1 -53 7 50 c4 28 8 44 8 36 2 -11 5 -11 16 -1 12 9 15 8 14 -7
0 -10 3 -82 7 -160 l8 -143 -65 0 c-71 0 -78 5 -78 58 0 27 0 27 -62 22 -59
-5 -61 -6 -63 -34 -1 -28 -35 -66 -60 -66 -43 0 -70 98 -33 124 20 14 20 15 3
61 -14 36 -15 49 -6 58 10 9 11 8 6 -8 -6 -18 -5 -18 5 -3 8 13 8 23 0 37 -28
54 29 80 178 81 l112 0 2 -52z m596 30 c2 -11 -3 -18 -12 -18 -10 0 -13 6 -10
18 5 14 4 15 -5 2 -15 -20 -14 -30 3 -30 18 0 29 -30 13 -35 -6 -2 -38 -6 -69
-8 -51 -5 -57 -4 -55 14 1 10 8 19 17 20 9 0 10 2 3 5 -17 7 -69 -21 -54 -30
6 -4 11 -2 11 3 0 6 4 11 10 11 5 0 7 -7 4 -15 -4 -8 -18 -15 -33 -15 l-26 0
3 -115 3 -115 -55 0 -56 0 0 120 0 119 -77 3 c-76 3 -78 4 -81 30 -5 45 21 51
212 46 94 -2 158 -1 141 3 -20 5 -7 7 40 6 58 -2 70 -5 73 -19z m426 -108 l-7
-130 32 0 c18 0 31 -5 31 -12 0 -7 3 -23 6 -35 6 -23 5 -23 -84 -23 l-91 0 4
38 c1 20 3 89 4 153 l1 116 53 10 c28 6 53 11 55 12 2 0 0 -57 -4 -129z
m-1476 -42 l3 -158 -56 0 -55 0 0 144 c0 79 3 152 6 161 5 12 17 15 53 13 l46
-3 3 -157z m1979 138 c7 -6 33 -63 58 -125 26 -63 53 -127 61 -142 8 -16 14
-30 14 -34 0 -3 -25 -5 -55 -5 l-55 0 0 35 0 36 -77 -3 c-73 -3 -77 -4 -83
-28 -5 -22 -12 -25 -57 -28 l-51 -3 19 68 c11 37 19 90 19 118 0 27 3 67 6 87
6 32 10 37 38 40 52 6 150 -4 163 -16z m-2907 4 c0 -5 8 -10 18 -10 15 0 15 2
2 10 -18 13 66 2 92 -11 19 -10 33 -99 25 -161 -6 -42 -43 -92 -60 -81 -6 3
-7 1 -3 -5 12 -19 -54 -52 -104 -52 -65 0 -116 43 -126 105 -8 55 3 138 18
129 5 -4 4 4 -2 17 l-13 23 27 -18 27 -17 -17 27 c-18 27 -18 27 4 15 25 -13
28 -9 8 12 -13 12 -10 14 16 15 16 0 33 3 36 6 9 10 52 7 52 -4z m2069 -12 c1
19 6 22 46 22 l45 0 0 -155 0 -155 -55 0 -55 0 1 158 c1 94 4 147 9 132 8 -24
8 -24 9 -2z m1227 8 c8 -8 14 -19 14 -25 0 -7 25 -11 65 -11 58 0 65 2 65 20
0 17 7 20 44 20 42 0 44 -1 47 -32 2 -18 3 -86 1 -150 l-3 -118 -45 0 c-24 0
-43 3 -43 8 1 4 1 44 0 90 l-1 82 -65 0 c-39 0 -65 4 -65 11 0 5 -4 7 -10 4
-6 -3 -10 -49 -10 -103 l0 -97 -55 0 -55 0 0 151 c0 83 3 154 7 157 12 13 94
7 109 -7z m-4651 -6 c-3 -5 -12 -10 -18 -10 -7 0 -6 4 3 10 19 12 23 12 15 0z
m565 -39 c0 -53 -8 -61 -61 -61 -22 0 -29 -5 -29 -20 0 -18 6 -20 43 -18 l42
3 0 -75 0 -75 -115 0 -115 0 -3 58 c-2 37 1 57 7 53 17 -11 23 14 7 30 -20 20
-23 140 -3 147 6 3 60 6 120 6 l107 1 0 -49z m179 23 l1 28 133 -3 132 -4 6
-34 c11 -59 2 -72 -42 -65 l-39 7 0 -102 0 -102 -57 3 -58 3 -5 95 -5 95 -42
3 -43 3 1 52 c1 45 2 48 9 22 l8 -30 1 29z m1183 -231 c3 -300 23 -243 -157
-468 -66 -83 -139 -175 -162 -205 -24 -30 -81 -104 -128 -164 -48 -60 -82
-113 -78 -117 4 -4 148 -9 319 -11 l312 -3 48 63 c27 35 55 74 63 86 13 21 20
22 156 21 l143 0 -16 -21 c-118 -153 -193 -247 -223 -282 l-38 -43 -743 0
c-409 1 -760 1 -781 1 l-37 0 37 48 c21 26 68 83 105 127 37 44 125 152 195
240 70 89 157 197 193 242 l65 81 123 4 c67 1 122 1 122 0 0 -8 -117 -170
-170 -237 -30 -38 -69 -88 -85 -109 -17 -22 -56 -73 -88 -115 -31 -41 -56 -80
-54 -86 2 -5 14 -10 28 -10 26 0 149 137 302 335 145 187 301 370 316 370 15
0 21 87 21 301 l0 209 105 0 104 0 3 -257z m-1814 112 c5 -64 -15 -111 -61
-142 -33 -23 -94 -32 -82 -13 3 6 4 10 1 10 -2 0 -13 3 -23 6 -15 5 -15 4 -3
-5 25 -17 5 -22 -28 -5 -36 18 -51 36 -34 42 7 2 9 9 6 14 -4 7 -2 8 5 4 9 -6
9 -11 1 -21 -8 -9 -7 -14 4 -18 9 -4 18 -2 21 3 4 6 2 10 -3 10 -5 0 -9 6 -9
13 0 6 -2 17 -3 22 -4 19 0 48 6 42 13 -13 42 13 37 32 -6 25 -33 36 -46 19
-6 -9 -7 -8 -3 5 3 10 6 30 6 43 0 13 5 24 11 24 5 0 7 -4 4 -10 -8 -13 -2
-13 28 1 18 8 30 8 43 0 16 -10 15 -10 -8 -5 -23 5 -28 3 -28 -14 0 -11 7 -26
16 -33 14 -12 20 -9 40 16 15 19 31 29 44 27 11 -2 20 2 20 8 0 6 -5 8 -12 4
-7 -5 -8 -3 -3 6 6 9 2 10 -15 5 -20 -6 -21 -5 -9 8 12 14 17 12 43 -15 23
-24 31 -42 34 -83z m-226 43 c-7 -7 -12 -8 -12 -2 0 14 12 26 19 19 2 -3 -1
-11 -7 -17z m-4 -53 c12 -26 -1 -85 -19 -85 -5 0 -4 9 3 20 11 16 10 23 -5 37
-18 17 -18 17 -12 -12 5 -28 5 -28 -5 -6 -15 33 4 53 25 25 15 -20 19 -16 9
10 -3 9 -13 16 -21 16 -8 0 -11 5 -8 10 10 16 21 12 33 -15z m-2234 -3942 l29
-26 -6 -99 c-4 -55 -3 -98 1 -96 88 43 95 50 63 67 -18 10 -46 69 -37 78 2 3
22 -5 44 -16 84 -43 71 -125 -27 -176 -28 -14 -38 -15 -62 -4 -17 6 -34 20
-39 30 -12 21 -14 269 -2 269 4 0 20 -12 36 -27z"/>
<path d="M8093 5562 l-553 -2 0 -88 0 -87 549 3 549 2 4 88 c3 48 5 87 4 87 0
0 -250 -1 -553 -3z"/>
<path d="M5094 4394 l1 -38 68 3 c49 2 67 -1 67 -11 0 -7 7 -2 16 10 8 12 14
32 12 45 -3 20 -9 22 -84 25 l-81 3 1 -37z"/>
<path d="M5035 4411 c-3 -5 -2 -12 3 -15 5 -3 9 1 9 9 0 17 -3 19 -12 6z"/>
<path d="M5307 4380 c3 -11 7 -20 9 -20 2 0 4 9 4 20 0 11 -4 20 -9 20 -5 0
-7 -9 -4 -20z"/>
<path d="M5209 4309 c-6 -13 -7 -19 -1 -15 6 3 12 0 15 -6 2 -7 4 -1 4 15 1
33 -3 34 -18 6z"/>
<path d="M5243 4297 c3 -15 0 -30 -4 -33 -13 -8 -11 -42 2 -50 7 -4 10 -1 7 7
-3 8 -1 24 3 36 5 13 4 32 -1 45 -10 22 -10 21 -7 -5z"/>
<path d="M4990 4224 c0 -6 8 -18 18 -28 18 -15 19 -15 31 11 10 24 9 26 -2 11
-13 -16 -15 -16 -30 0 -9 9 -17 12 -17 6z"/>
<path d="M5845 4491 c3 -6 -3 -14 -12 -20 -17 -10 -17 -10 0 -11 9 0 17 2 17
4 0 2 3 11 6 20 3 9 1 16 -6 16 -6 0 -9 -4 -5 -9z"/>
<path d="M5685 4450 c-3 -5 -1 -10 4 -10 6 0 11 5 11 10 0 6 -2 10 -4 10 -3 0
-8 -4 -11 -10z"/>
<path d="M6716 4384 c-19 -19 -21 -43 -3 -48 6 -3 31 -6 53 -9 41 -5 42 -4 35
22 -6 21 -14 27 -41 29 -25 3 -30 6 -19 13 8 5 9 9 2 9 -6 0 -19 -7 -27 -16z"/>
<path d="M6635 4319 c-4 -6 -5 -12 -2 -15 2 -3 7 2 10 11 7 17 1 20 -8 4z"/>
<path d="M6610 4238 c0 -6 3 -8 7 -5 3 4 16 -1 27 -10 21 -18 21 -18 2 5 -21
24 -36 29 -36 10z"/>
<path d="M3890 4330 c0 -37 22 -40 38 -5 16 35 16 35 -13 35 -21 0 -25 -5 -25
-30z"/>
<path d="M3799 4223 c6 -13 19 -23 28 -23 9 0 14 1 12 3 -2 1 -15 11 -28 22
l-24 20 12 -22z"/>
<path d="M6046 4465 c4 -8 8 -15 10 -15 2 0 4 7 4 15 0 8 -4 15 -10 15 -5 0
-7 -7 -4 -15z"/>
<path d="M2901 4264 c0 -11 3 -14 6 -6 3 7 2 16 -1 19 -3 4 -6 -2 -5 -13z"/>
<path d="M2652 4365 c0 -16 2 -22 5 -12 2 9 2 23 0 30 -3 6 -5 -1 -5 -18z"/>
<path d="M2587 4333 c-3 -5 -2 -15 3 -22 10 -17 63 -6 57 12 -4 14 -53 22 -60
10z"/>
<path d="M2652 4280 c0 -14 2 -19 5 -12 2 6 2 18 0 25 -3 6 -5 1 -5 -13z"/>
<path d="M2563 4264 c-4 -11 1 -23 13 -32 16 -12 16 -14 2 -9 -10 4 -28 2 -40
-3 -21 -8 -20 -9 9 -9 17 -1 40 -4 50 -7 15 -5 15 -4 3 5 -10 7 -11 11 -2 11
7 0 4 8 -8 20 -12 12 -18 25 -15 30 4 6 4 10 0 10 -3 0 -8 -7 -12 -16z"/>
<path d="M2555 4190 c3 -5 11 -10 16 -10 6 0 7 5 4 10 -3 6 -11 10 -16 10 -6
0 -7 -4 -4 -10z"/>
</g>
</svg>
