<?xml version="1.0" standalone="no"?>
<!DOCTYPE svg PUBLIC "-//W3C//DTD SVG 20010904//EN"
 "http://www.w3.org/TR/2001/REC-SVG-20010904/DTD/svg10.dtd">
<svg version="1.0" xmlns="http://www.w3.org/2000/svg"
 width="1024.000000pt" height="1024.000000pt" viewBox="0 0 1024.000000 1024.000000"
 preserveAspectRatio="xMidYMid meet">

<g transform="translate(0.000000,1024.000000) scale(0.100000,-0.100000)"
fill="#000000" stroke="none">
<path d="M0 5375 c0 -4722 1 -4865 18 -4865 11 0 26 -8 36 -18 14 -16 15 -32
10 -104 l-7 -84 -28 4 -29 4 0 -156 0 -156 5120 0 5120 0 0 5120 0 5120 -5120
0 -5120 0 0 -4865z m4935 3240 c44 -13 101 -39 125 -57 25 -18 286 -272 580
-565 l535 -531 -3 -81 c-3 -80 -4 -81 -30 -81 -21 0 -128 102 -561 533 -651
647 -620 619 -723 673 l-48 24 0 55 c0 66 4 67 125 30z m-383 -106 c-5 -13
-13 -49 -17 -79 -7 -48 -15 -64 -64 -120 -32 -36 -84 -99 -118 -140 -114 -142
-328 -366 -892 -935 -680 -686 -727 -732 -752 -745 -18 -10 -19 -7 -19 92 0
101 1 103 28 123 82 60 1774 1785 1805 1840 8 15 11 15 23 3 11 -11 12 -21 6
-39z m293 -612 l20 -36 -21 -28 c-35 -47 -93 -43 -120 8 -21 42 -11 77 28 94
42 17 68 6 93 -38z m-325 -269 c31 -34 36 -66 13 -96 -28 -38 -75 -41 -108 -8
-30 31 -32 64 -4 100 26 33 70 35 99 4z m747 -153 c105 -52 180 -129 222 -228
59 -144 59 -315 -1 -437 -33 -68 -79 -118 -510 -555 -342 -348 -390 -401 -408
-456 -10 -27 -28 -61 -41 -75 -21 -23 -88 -64 -104 -64 -7 0 -4 209 4 242 4
17 134 158 361 390 578 591 565 575 577 676 7 65 -12 177 -40 231 -46 90 -202
172 -299 157 -109 -16 -128 -32 -538 -449 -212 -216 -446 -455 -520 -532 -74
-77 -158 -160 -186 -184 -49 -41 -53 -49 -73 -127 -12 -46 -21 -96 -21 -111 1
-54 36 -105 176 -251 l141 -148 -111 2 -111 1 -112 111 c-127 124 -152 166
-153 254 0 73 24 196 49 254 20 43 124 153 666 700 60 61 208 213 329 337 120
125 234 236 253 248 72 45 140 59 260 56 106 -3 115 -5 190 -42z m-1066 -155
c27 -15 51 -67 43 -93 -18 -61 -70 -74 -116 -30 -36 34 -37 75 -3 108 26 27
46 31 76 15z m2504 -214 l98 -93 -2 -226 -2 -226 -186 -185 -186 -185 48 -53
c26 -29 116 -123 200 -208 204 -209 335 -350 335 -361 0 -5 -45 -9 -99 -9
l-100 0 -256 250 -257 250 -92 -98 c-51 -53 -144 -154 -209 -223 -140 -152
-184 -192 -204 -185 -8 3 -51 6 -95 6 l-79 0 21 28 c12 15 81 90 153 166 73
76 179 190 237 252 277 300 367 393 393 404 27 12 27 13 8 27 -12 8 -41 39
-66 69 l-45 56 0 121 c0 100 3 127 18 149 27 40 221 228 236 228 10 0 13 14
11 52 -2 55 3 88 15 88 3 0 51 -42 105 -94z m-2810 -101 c48 -47 22 -135 -39
-135 -25 0 -76 50 -76 75 0 26 22 63 44 73 33 16 45 14 71 -13z m1115 -17 c30
-32 35 -64 16 -94 -24 -36 -63 -48 -92 -29 -33 21 -46 51 -39 86 13 56 77 77
115 37z m899 -24 c12 -15 21 -38 21 -51 0 -27 -41 -73 -65 -73 -23 0 -75 54
-75 78 0 33 38 72 70 72 19 0 36 -9 49 -26z m-2329 -256 c20 -22 27 -73 12
-94 -8 -13 -46 -34 -61 -34 -5 0 -23 12 -40 26 -40 33 -42 74 -5 103 34 27 68
27 94 -1z m997 -90 c47 -44 19 -108 -47 -108 -71 0 -97 57 -50 108 26 28 67
28 97 0z m1448 -88 c22 -6 59 -18 83 -26 l42 -16 0 -82 0 -83 -37 7 c-21 4
-64 15 -96 25 -112 33 -179 4 -314 -136 -54 -57 -160 -167 -234 -244 -74 -77
-197 -201 -274 -277 l-140 -137 -102 -1 c-57 0 -103 3 -103 7 0 8 86 99 325
343 105 107 263 271 350 364 88 92 179 182 203 198 88 61 200 83 297 58z
m1075 -90 c0 -75 -3 -101 -14 -107 -8 -4 -60 -52 -116 -105 -55 -54 -104 -98
-108 -98 -4 0 -27 20 -51 44 l-44 44 22 29 c30 37 251 261 276 279 11 8 23 14
27 14 5 0 8 -45 8 -100z m-4405 -663 c118 -115 215 -212 215 -215 0 -4 -37 -6
-82 -4 l-83 4 -125 124 c-105 104 -196 180 -274 229 -13 9 -16 41 -17 228 -2
244 -10 214 86 315 l50 53 8 -263 7 -263 215 -208z m4778 349 c108 -104 197
-193 197 -198 0 -19 -33 -5 -68 30 -21 20 -131 126 -244 236 -129 123 -211
210 -218 229 -11 34 -30 51 333 -297z m-4146 282 c27 -25 30 -64 7 -96 -29
-41 -105 -20 -118 33 -6 25 7 64 28 77 21 14 60 8 83 -14z m-68 -404 c28 -36
26 -70 -5 -100 -30 -31 -67 -27 -101 12 -30 32 -29 59 2 89 33 34 77 33 104
-1z m3950 -140 c12 -15 21 -35 21 -45 0 -26 -49 -79 -73 -79 -59 0 -93 101
-45 134 34 24 73 20 97 -10z m426 -196 c30 -13 42 -50 29 -87 -8 -21 -17 -27
-50 -29 -76 -6 -118 67 -64 110 26 21 49 23 85 6z m-2301 -14 c19 -19 30 -58
22 -79 -4 -12 -23 -15 -81 -15 -89 0 -94 9 -39 70 39 43 72 51 98 24z m-3154
-248 c238 -4 295 -12 365 -49 38 -19 98 -82 118 -123 25 -48 40 -160 34 -243
-8 -114 -38 -184 -112 -258 -34 -34 -59 -64 -55 -65 6 -3 94 -104 193 -223 26
-31 47 -61 47 -66 0 -5 -80 -9 -178 -9 l-178 0 -81 83 c-153 157 -166 174
-160 207 l7 30 -150 0 -150 0 0 -160 0 -160 -155 0 -155 0 0 393 -1 392 -52
30 c-66 38 -109 105 -115 178 l-4 53 273 -3 c151 -2 380 -5 509 -7z m2618 -7
c112 -12 166 -24 184 -42 9 -10 12 -41 10 -114 -4 -120 7 -113 -164 -113 -111
0 -116 1 -111 20 5 19 0 20 -65 20 -97 0 -213 -24 -272 -56 -131 -71 -173
-230 -97 -368 47 -86 134 -120 340 -132 l107 -7 -6 60 c-4 34 -2 63 3 66 5 3
39 -10 77 -28 37 -19 94 -40 127 -47 l59 -12 0 -123 c0 -143 6 -135 -117 -153
-118 -17 -489 -8 -568 14 -136 38 -221 102 -302 227 -124 190 -89 463 82 635
83 84 179 129 323 154 70 12 280 11 390 -1z m-1258 -225 c104 -11 189 -65 233
-149 29 -56 36 -189 12 -234 -37 -72 -153 -93 -456 -84 -119 3 -208 2 -211 -3
-12 -19 13 -55 47 -69 25 -11 76 -15 183 -15 82 0 217 -3 301 -7 l152 -6 -3
-106 -3 -106 -40 -14 c-56 -20 -514 -28 -628 -11 -151 22 -229 77 -294 208
-45 90 -55 190 -29 292 48 187 145 286 306 310 56 8 329 4 430 -6z m2213 6
l217 0 0 -141 0 -140 -27 18 c-16 11 -41 25 -58 32 -35 16 -312 30 -420 21
-67 -5 -70 -6 -73 -32 -2 -16 -2 -28 0 -29 2 -1 95 -7 208 -14 236 -14 288
-29 351 -103 98 -115 75 -321 -42 -380 -69 -35 -184 -51 -364 -51 -230 -1
-371 24 -421 74 -21 21 -24 33 -24 105 l0 80 278 0 c152 0 283 4 291 9 17 11
6 46 -17 57 -9 4 -111 13 -227 19 -225 13 -259 21 -309 71 -85 86 -93 201 -20
306 57 82 154 111 344 102 52 -2 193 -4 313 -4z m888 0 l477 0 -2 -132 -1
-133 -182 -3 -183 -2 0 -270 0 -270 -155 0 -155 0 0 270 0 270 -114 0 c-131 0
-156 7 -209 58 -43 42 -57 82 -57 166 l0 59 53 -7 c28 -3 266 -6 528 -6z
m1606 -11 c96 -19 133 -71 133 -188 l0 -71 -190 0 -190 0 0 -269 0 -268 -37
-7 c-63 -10 -406 -7 -489 5 -183 25 -279 93 -335 236 -32 81 -33 230 -2 326
24 77 83 161 142 201 69 48 129 53 541 49 206 -2 398 -9 427 -14z m-4370
-1144 l90 -85 6 -146 7 -146 217 -222 c120 -121 228 -229 241 -240 35 -28 103
-32 160 -11 55 21 112 74 300 275 75 80 149 153 166 164 l30 18 -33 14 c-30
13 -32 16 -29 56 3 42 4 43 41 46 22 2 51 -1 66 -6 56 -20 61 -6 61 148 l0
140 -64 0 c-67 0 -76 6 -76 51 0 18 9 19 155 19 l155 0 0 -35 c0 -34 -1 -35
-40 -35 l-40 0 0 -127 c-1 -149 -9 -195 -43 -232 -22 -22 -25 -33 -20 -72 5
-43 4 -46 -23 -58 -16 -6 -90 -78 -164 -158 -238 -260 -301 -320 -362 -348
-76 -35 -161 -48 -229 -35 -109 21 -145 47 -401 300 l-242 238 -127 -5 c-149
-7 -141 -10 -273 110 l-86 79 0 188 c0 141 3 190 13 193 6 3 111 6 233 6 l221
1 90 -85z m740 61 c15 -13 36 -38 46 -55 18 -30 18 -31 -1 -31 -11 0 -33 -3
-51 -6 -24 -5 -32 -3 -38 12 -9 26 -23 34 -61 34 l-33 0 3 -72 3 -73 50 -6
c86 -11 115 -42 115 -123 0 -72 -16 -104 -57 -112 -53 -10 -182 1 -198 17 -8
8 -18 33 -23 57 l-10 42 49 0 c41 0 49 -3 49 -19 0 -24 15 -29 63 -23 34 4 37
7 37 36 0 47 -9 53 -79 58 -83 6 -91 17 -91 124 0 140 18 164 125 164 63 0 77
-3 102 -24z m1079 14 l74 0 0 -36 0 -37 -41 6 -42 5 5 -194 5 -194 -43 0 -44
0 0 191 0 191 -45 -6 -45 -7 0 39 c0 21 3 42 8 46 4 4 27 5 51 2 24 -3 77 -6
117 -6z m614 -36 l0 -34 -96 0 c-84 0 -95 -2 -90 -16 3 -9 6 -38 6 -65 l0 -49
40 0 c34 0 41 -4 46 -25 8 -34 1 -40 -46 -36 l-40 3 0 -95 0 -94 -41 -7 c-22
-4 -44 -4 -50 -1 -10 7 -13 367 -3 425 l6 35 134 -3 134 -3 0 -35z m483 23 c4
-7 6 -23 5 -37 -3 -24 -5 -25 -91 -28 -64 -2 -87 -6 -84 -15 2 -7 19 -11 41
-10 37 3 37 2 34 -35 -3 -35 -5 -37 -41 -40 -33 -3 -38 -6 -35 -25 2 -15 11
-23 28 -25 33 -5 50 -20 50 -43 0 -14 -10 -20 -40 -25 -47 -8 -53 -14 -44 -49
6 -24 9 -25 84 -25 62 0 79 -3 84 -16 11 -28 6 -52 -10 -58 -30 -11 -229 -7
-242 6 -9 9 -12 69 -12 207 0 249 -7 237 152 233 71 -3 116 -8 121 -15z m453
-11 c32 -32 34 -39 34 -98 0 -36 5 -69 12 -76 9 -9 9 -18 0 -37 -7 -14 -12
-55 -12 -91 0 -59 3 -68 30 -96 34 -33 37 -43 15 -52 -21 -8 -55 7 -93 39 -31
26 -32 30 -32 101 0 82 4 78 -75 67 l-48 -6 7 -89 7 -88 -51 0 -50 0 0 204 c0
191 1 205 21 230 19 25 25 26 111 26 89 0 90 0 124 -34z m-4412 -184 c78 -76
230 -226 340 -333 109 -106 453 -447 764 -757 310 -310 588 -582 616 -604 108
-86 213 -111 294 -69 39 21 274 255 697 696 142 149 359 371 482 495 122 124
231 236 240 250 11 16 20 51 23 95 l5 70 68 3 67 3 0 -110 c0 -116 -4 -141
-25 -141 -7 0 -91 -82 -186 -182 -95 -101 -248 -259 -339 -353 -92 -93 -290
-298 -440 -455 -423 -440 -451 -467 -527 -503 -129 -60 -272 -45 -403 40 -33
22 -388 369 -870 852 -448 449 -857 856 -908 904 l-92 88 0 74 c0 75 0 75 27
75 21 0 57 -30 167 -138z m1996 -1142 c10 -5 24 -26 30 -45 10 -30 9 -40 -5
-61 -23 -36 -60 -47 -94 -29 -47 24 -56 78 -18 112 35 32 58 38 87 23z m-4605
-2376 c14 -15 16 -31 10 -117 -4 -54 -3 -97 2 -95 47 22 83 43 83 50 0 4 -9
12 -19 17 -18 10 -46 69 -37 78 7 7 70 -28 83 -46 34 -44 5 -109 -66 -145 -28
-15 -38 -16 -62 -5 -17 6 -34 20 -39 30 -6 10 -10 74 -10 144 0 121 1 125 19
115 11 -5 27 -17 36 -26z"/>
<path d="M1880 5029 c0 -106 2 -120 16 -115 9 3 112 6 231 6 l215 0 34 34 c29
29 34 41 34 80 0 36 -6 52 -29 78 l-29 33 -236 3 -236 3 0 -122z"/>
<path d="M3184 4960 c-22 -9 -54 -47 -54 -63 0 -11 352 2 365 14 15 15 -8 43
-41 50 -44 10 -246 9 -270 -1z"/>
<path d="M7470 4892 c-39 -39 -47 -100 -23 -172 24 -73 55 -91 173 -98 l89 -5
3 145 3 146 -59 6 c-121 13 -155 9 -186 -22z"/>
<path d="M7078 3970 l4 -70 59 0 60 0 -7 63 c-4 34 -9 65 -11 70 -2 4 -28 7
-56 7 l-52 0 3 -70z"/>
</g>
</svg>
